<svg version="1.1" id="Layer_1" xmlns="http://www.w3.org/2000/svg" xmlns:xlink="http://www.w3.org/1999/xlink" x="0px" y="0px"
	 width="100%" viewBox="0 0 176 176" enable-background="new 0 0 176 176" xml:space="preserve">
<path fill="#000000" opacity="1.000000" stroke="none" 
	d="
M126.314041,43.231964 
	C129.986908,42.781265 133.165573,41.468285 137.493057,42.475945 
	C133.144379,50.907867 128.970993,58.999878 124.246063,68.161331 
	C123.203369,64.712616 123.927650,62.689762 124.257820,60.656532 
	C125.428238,53.449036 121.901512,49.370159 114.628220,49.553547 
	C113.635269,49.578579 112.646599,49.788727 111.656754,49.919277 
	C98.302940,51.680447 96.013268,55.437664 100.617691,68.177429 
	C101.145775,69.638542 101.581703,71.082932 101.035309,72.539825 
	C97.504349,81.954597 98.425659,91.930138 97.434128,101.647575 
	C96.084900,114.870636 95.319099,128.153229 94.304970,141.410446 
	C94.216743,142.563766 94.115746,143.705368 92.643967,144.639938 
	C91.356079,143.228638 91.702255,141.563461 91.701065,140.061554 
	C91.679390,112.767799 91.658646,85.473976 91.700996,58.180264 
	C91.712204,50.957294 94.933601,47.486103 102.183350,46.514591 
	C110.085960,45.455593 117.988640,44.397095 126.314041,43.231964 
z"/>
<path fill="#000000" opacity="1.000000" stroke="none" 
	d="
M77.752243,75.153786 
	C76.868324,72.508690 76.400589,70.359726 77.432129,67.974197 
	C83.631081,53.638653 76.088943,50.033295 63.024921,49.842854 
	C54.979603,49.725567 52.682438,53.393890 54.027378,61.546841 
	C54.188999,62.526569 54.269444,63.529682 54.268105,64.521797 
	C54.267494,64.973030 53.975494,65.423882 53.433033,66.954689 
	C48.942242,58.452648 44.841717,50.689472 40.135109,41.778851 
	C49.031433,42.925724 56.681469,43.899445 64.327637,44.902664 
	C68.445427,45.442936 72.548332,46.104786 76.672813,46.583939 
	C81.923592,47.193943 86.171104,50.946617 86.198914,56.189442 
	C86.351692,84.991577 86.281281,113.794914 86.265945,142.597824 
	C86.265625,143.201065 86.251343,143.934174 84.945831,144.338684 
	C82.909409,141.848129 83.029198,138.683609 82.901573,135.664093 
	C82.107613,116.880318 80.279251,98.174469 78.720055,79.448631 
	C78.611084,78.139854 78.158707,76.859665 77.752243,75.153786 
z"/>
</svg>